<?xml version="1.0" encoding="UTF-8" standalone="no"?>
<svg
   xmlns:dc="http://purl.org/dc/elements/1.1/"
   xmlns:cc="http://creativecommons.org/ns#"
   xmlns:rdf="http://www.w3.org/1999/02/22-rdf-syntax-ns#"
   xmlns:svg="http://www.w3.org/2000/svg"
   xmlns="http://www.w3.org/2000/svg"
   xmlns:sodipodi="http://sodipodi.sourceforge.net/DTD/sodipodi-0.dtd"
   xmlns:inkscape="http://www.inkscape.org/namespaces/inkscape"
   width="80px"
   height="80px"
   viewBox="0 0 80 80"
   version="1.1"
   id="svg227"
   sodipodi:docname="circle-responder-boat-colored-pickedup.svg"
   inkscape:version="1.0.1 (3bc2e813f5, 2020-09-07)">
  <metadata
     id="metadata233">
    <rdf:RDF>
      <cc:Work
         rdf:about="">
        <dc:format>image/svg+xml</dc:format>
        <dc:type
           rdf:resource="http://purl.org/dc/dcmitype/StillImage" />
        <dc:title>map_icons</dc:title>
      </cc:Work>
    </rdf:RDF>
  </metadata>
  <defs
     id="defs231" />
  <sodipodi:namedview
     pagecolor="#ffffff"
     bordercolor="#666666"
     borderopacity="1"
     objecttolerance="10"
     gridtolerance="10"
     guidetolerance="10"
     inkscape:pageopacity="0"
     inkscape:pageshadow="2"
     inkscape:window-width="1744"
     inkscape:window-height="1060"
     id="namedview229"
     showgrid="false"
     inkscape:zoom="10.4875"
     inkscape:cx="22.598331"
     inkscape:cy="40"
     inkscape:window-x="0"
     inkscape:window-y="31"
     inkscape:window-maximized="0"
     inkscape:current-layer="svg227" />
  <!-- Generator: Sketch 61.2 (89653) - https://sketch.com -->
  <title
     id="title195">map_icons</title>
  <desc
     id="desc197">Created with Sketch.</desc>
  <g
     id="circle"
     transform="translate(3,3)"
     fill="#000000"
     fill-opacity="0.501721"
     fill-rule="nonzero"
     style="stroke:none;stroke-width:1">
    <path
       d="M 75,37.5 C 75,58.210962 58.210962,75 37.5,75 16.789038,75 0,58.210962 0,37.5 0,16.789038 16.789038,0 37.5,0 58.210962,0 75,16.789038 75,37.5 Z"
       id="Path" />
  </g>
  <g
     id="whitecircle"
     transform="translate(5,5)"
     fill="#b6d0ff"
     fill-rule="nonzero"
     style="stroke:none;stroke-width:1;fill:#b694cd;fill-opacity:1">
    <path
       d="M 71,35.5 C 71,55.106377 55.106377,71 35.5,71 15.893623,71 0,55.106377 0,35.5 0,15.893623 15.893623,0 35.5,0 55.106377,0 71,15.893623 71,35.5 Z"
       id="path201"
       style="fill:#b694cd;fill-opacity:1" />
  </g>
  <g
     id="circle-flood-rescue-colored"
     transform="translate(11,8)"
     fill="#0003ff"
     fill-rule="nonzero"
     style="stroke:none;stroke-width:1">
    <path
       d="M 26.016497,6 C 26.009219,6.1085541 26,6.2163844 26,6.3285569 26,8.9092488 27.344493,11 29.00097,11 30.657448,11 32,8.9092488 32,6.3285569 32,6.2163844 31.98884,6.1071067 31.984959,6 Z"
       id="path204" />
    <path
       d="M 33.653977,4.2121364 C 33.388881,2.3716148 31.648743,0 28.505456,0 25.421863,0 23.625241,2.3816449 23.342171,4.2121364 H 22 V 5 H 35 V 4.2121364 Z"
       id="path206" />
    <path
       d="m 33.892801,17.205079 h 0.981929 v 7.510522 C 35.868819,25.101305 36.925435,25.53145 38,26 V 16.963671 C 38,14.527648 36.150197,12.144845 33.211355,12 c -0.164427,0.50531 -0.313801,1.413332 -0.119267,2.908963 0.181217,1.387545 0.800713,2.296116 0.800713,2.296116 z"
       id="path208" />
    <path
       d="m 50.138298,53.596295 c -2.516974,-0.788561 -3.362243,-0.788561 -5.876363,0 -2.589458,0.8151 -3.618506,0.8151 -6.24278,0 -2.648815,-0.814558 -3.398199,-0.761481 -5.879787,0 -2.635688,0.8151 -3.656175,0.8151 -6.24335,0 -2.519828,-0.788561 -3.35996,-0.788561 -5.879788,0 -2.588316,0.8151 -3.616223,0.8151 -6.242779,0 C 12.494417,53.201473 11.495618,53 10.803308,53 10.152091,53 9.1744093,53.201473 7.8919513,53.596295 6.6990999,53.967829 5.746531,54.147639 5,54.182301 v 3.672552 L 5.0102734,58 c 0.4411838,-0.228011 1.4376999,-0.428943 2.7207286,-0.823765 2.696758,-0.836222 3.656746,-0.790187 6.209106,0 2.487295,0.765273 3.242958,0.818891 5.88207,0 2.620849,-0.815641 3.636199,-0.815641 6.27417,0 2.636259,0.815099 3.390781,0.765273 5.882641,0 2.547794,-0.797769 3.501505,-0.839472 6.206823,0 2.474739,0.765273 3.232114,0.815099 5.882071,0 2.624844,-0.815641 3.65275,-0.815641 6.241638,0 C 51.420756,57.527188 52.3231,57.722162 53,57.762782 v -3.781954 c -0.525654,0.243717 -1.5684,0.02545 -2.861702,-0.384533 z"
       id="path210" />
    <path
       d="m 50.138298,46.596295 c -2.516974,-0.788561 -3.362243,-0.788561 -5.876363,0 -2.589458,0.8151 -3.618506,0.8151 -6.24278,0 -2.648815,-0.815641 -3.398199,-0.762023 -5.879787,0 -2.635688,0.8151 -3.656175,0.8151 -6.24335,0 -2.519828,-0.788561 -3.35996,-0.788561 -5.879788,0 -2.588316,0.8151 -3.616223,0.8151 -6.242779,0 C 12.494417,46.201473 11.495618,46 10.803308,46 10.152091,46 9.1744093,46.201473 7.8919513,46.596295 6.6990999,46.967829 5.746531,47.147639 5,47.182301 v 3.672552 L 5.0102734,51 c 0.4411838,-0.228553 1.4376999,-0.429484 2.7207286,-0.823765 2.696758,-0.836222 3.656746,-0.789645 6.209106,0 2.487295,0.765814 3.242958,0.819432 5.88207,0 2.620849,-0.814558 3.636199,-0.814558 6.27417,0 2.636259,0.815099 3.390781,0.765814 5.882641,0 2.547794,-0.797227 3.501505,-0.839472 6.206823,0 2.474739,0.765814 3.232114,0.815099 5.882071,0 2.624844,-0.814558 3.65275,-0.814558 6.241638,0 C 51.420756,50.52773 52.3231,50.722704 53,50.763323 v -3.781954 c -0.525654,0.243176 -1.5684,0.02383 -2.861702,-0.385074 z"
       id="path212" />
    <g
       id="Group"
       transform="translate(9,24)">
      <path
         d="M 20.474418,0.34529412 V 19.591765 c 0.701418,-0.08647 1.463373,-0.290589 2.44594,-0.614706 2.530926,-0.827647 3.295209,-0.885294 5.996687,0 2.676447,0.885294 3.725373,0.885294 6.366895,0 0.502344,-0.167647 0.937747,-0.301177 1.335314,-0.40353 1.208418,-2.43 2.281791,-4.934117 2.249194,-6.070588 C 38.702552,6.6805882 24.144492,1.5482353 20.474418,0.34529412 Z"
         id="path214" />
      <path
         d="M 18.961567,0.29470588 C 15.587776,1.3894118 0.58034328,6.5888235 0.41270149,12.502941 0.3789403,13.634118 1.443,16.120588 2.6450149,18.541176 c 0.461015,0.107059 0.9703433,0.247059 1.5442836,0.435883 2.678194,0.885294 3.7265373,0.885294 6.3668955,0 2.569925,-0.856471 3.426761,-0.856471 5.996687,0 0.96394,0.323529 1.714253,0.527059 2.409268,0.614117 V 0.29470588 Z"
         id="path216" />
    </g>
    <polygon
       id="polygon219"
       points="25,18.333502 25,20.666498 27.332997,20.666498 27.332997,23 29.667003,23 29.667003,20.666498 32,20.666498 32,18.333502 29.667003,18.333502 29.667003,16 27.332997,16 27.332997,18.333502 " />
    <path
       d="M 26.013794,13 C 26.007797,13.065429 26,13.130859 26,13.196288 26,14.746404 27.120907,16 28.5009,16 29.880293,16 31,14.745012 31,13.196288 31,13.130162 30.990404,13.065429 30.987406,13 Z"
       id="path221" />
    <path
       d="m 22.126009,24.714397 v -7.526599 h 0.981981 c 0,0 0.618948,-0.905554 0.800175,-2.288493 C 24.102129,13.40864 23.953327,12.504179 23.788891,12 20.849319,12.144364 19,14.519256 19,16.947192 V 26 c 1.073462,-0.468635 2.128975,-0.899539 3.126009,-1.285603 z"
       id="path223" />
  </g>
</svg>
