<?xml version="1.0" encoding="UTF-8" standalone="no"?>
<svg
   xmlns:dc="http://purl.org/dc/elements/1.1/"
   xmlns:cc="http://creativecommons.org/ns#"
   xmlns:rdf="http://www.w3.org/1999/02/22-rdf-syntax-ns#"
   xmlns:svg="http://www.w3.org/2000/svg"
   xmlns="http://www.w3.org/2000/svg"
   xmlns:sodipodi="http://sodipodi.sourceforge.net/DTD/sodipodi-0.dtd"
   xmlns:inkscape="http://www.inkscape.org/namespaces/inkscape"
   width="80px"
   height="80px"
   viewBox="0 0 80 80"
   version="1.1"
   id="svg110"
   sodipodi:docname="marker-incident-pickedup-colored2.svg"
   inkscape:version="1.0.1 (3bc2e813f5, 2020-09-07)">
  <metadata
     id="metadata116">
    <rdf:RDF>
      <cc:Work
         rdf:about="">
        <dc:format>image/svg+xml</dc:format>
        <dc:type
           rdf:resource="http://purl.org/dc/dcmitype/StillImage" />
        <dc:title>map_icons</dc:title>
      </cc:Work>
    </rdf:RDF>
  </metadata>
  <defs
     id="defs114" />
  <sodipodi:namedview
     pagecolor="#ffffff"
     bordercolor="#666666"
     borderopacity="1"
     objecttolerance="10"
     gridtolerance="10"
     guidetolerance="10"
     inkscape:pageopacity="0"
     inkscape:pageshadow="2"
     inkscape:window-width="1526"
     inkscape:window-height="1026"
     id="namedview112"
     showgrid="false"
     inkscape:zoom="10.4875"
     inkscape:cx="40"
     inkscape:cy="40"
     inkscape:window-x="499"
     inkscape:window-y="206"
     inkscape:window-maximized="0"
     inkscape:current-layer="svg110" />
  <!-- Generator: Sketch 61.2 (89653) - https://sketch.com -->
  <title
     id="title102">map_icons</title>
  <desc
     id="desc104">Created with Sketch.</desc>
  <g
     id="marker"
     transform="translate(12)"
     fill="#7c5c5c"
     fill-rule="nonzero"
     style="stroke:none;stroke-width:1">
    <path
       d="M 27.5,0 C 14.807933,0 0,7.928 0,28.108267 0,41.8016 21.153967,72.072 27.5,80 33.141092,72.072 55,42.522667 55,28.108267 55,7.928 40.192067,0 27.5,0 Z"
       id="path4133" />
  </g>
  <path
     d="m 54.295945,46.643146 c 0.49406,0 0.988119,0.162541 1.358663,0.487625 v 0 l 1.852722,1.584781 0.103423,0.08777 c 0.02917,0.02113 0.05921,0.04011 0.08994,0.05695 C 51.345801,60.570734 42.666859,72.500203 39.5,77 36.473437,73.17726 29.814576,63.813615 24.060424,53.87336 c 0.05506,-0.04307 0.106848,-0.100575 0.154439,-0.17039 v 0 l 1.518579,-1.930693 0.10485,-0.124679 c 0.288856,-0.31292 0.648816,-0.46938 1.008775,-0.46938 0.404955,0 0.809909,0.19802 1.113625,0.594059 v 0 l 0.843655,1.039604 0.13477,0.154621 c 0.548541,0.597034 1.209886,0.934488 1.957494,0.934488 0.809909,0 1.51858,-0.39604 2.092265,-1.089109 v 0 l 0.843655,-1.089109 0.104849,-0.124679 c 0.288857,-0.31292 0.648816,-0.46938 1.008776,-0.46938 0.404954,0 0.809909,0.19802 1.113625,0.643564 v 0 l 0.843655,1.039604 0.135322,0.154621 c 0.552781,0.597034 1.240484,0.934488 1.956942,0.934488 0.776163,0 1.518579,-0.39604 2.092265,-1.089109 v 0 l 0.843655,-1.089109 0.104849,-0.124679 c 0.288856,-0.31292 0.648816,-0.46938 1.008776,-0.46938 0.404954,0 0.809908,0.19802 1.113624,0.594059 v 0 l 0.843655,1.089109 0.135323,0.154621 c 0.55278,0.597034 1.240484,0.934488 1.956942,0.934488 0.809909,0 1.518579,-0.39604 2.092264,-1.089109 v 0 l 0.843656,-1.089109 0.104849,-0.124679 c 0.288856,-0.31292 0.648816,-0.46938 1.008775,-0.46938 0.404955,0 0.809909,0.19802 1.113625,0.594059 v 0 l 1.518579,1.930693 0.07015,0.09076 c 0.12108,0.137514 0.26169,0.206271 0.402299,0.206271 0.202477,0 0.438701,-0.148515 0.573685,-0.39604 0.134985,-0.198019 0.202477,-0.495049 0.168731,-0.792079 0,-0.297029 -0.101238,-0.544554 -0.269969,-0.742574 v 0 L 53.202852,50.138614 53.067529,49.973425 C 52.514749,49.337454 51.827045,49 51.110587,49 c -0.776163,0 -1.518579,0.39604 -2.092265,1.138614 v 0 l -0.843655,1.089109 -0.09485,0.109943 c -0.265526,0.278151 -0.628818,0.434611 -1.018774,0.434611 -0.404955,0 -0.809909,-0.19802 -1.113625,-0.594059 v 0 L 45.103763,50.138614 44.96844,49.973425 C 44.41566,49.337454 43.727956,49 43.011498,49 c -0.776162,0 -1.484833,0.39604 -2.092264,1.138614 v 0 l -0.877402,1.089109 -0.0948,0.109943 c -0.265155,0.278151 -0.625115,0.434611 -0.985074,0.434611 -0.438701,0 -0.809909,-0.19802 -1.113625,-0.594059 v 0 L 37.004674,50.138614 36.862716,49.973425 C 36.287817,49.337454 35.628867,49 34.91241,49 c -0.776163,0 -1.51858,0.39604 -2.092265,1.138614 v 0 l -0.843655,1.089109 -0.0948,0.109943 c -0.265156,0.278151 -0.625115,0.434611 -0.985075,0.434611 -0.4387,0 -0.809908,-0.19802 -1.113624,-0.594059 v 0 L 28.939332,50.138614 28.804009,49.973425 C 28.251229,49.337454 27.563525,49 26.847067,49 c -0.776163,0 -1.518579,0.39604 -2.092265,1.138614 v 0 l -1.518579,1.930693 -0.06437,0.103135 c -0.01409,0.0248 -0.02758,0.05027 -0.04036,0.07639 -0.633751,-1.121444 -1.253002,-2.247214 -1.8513,-3.369822 l 0.05739,-0.03505 v 0 l 0.103423,-0.08777 1.852722,-1.584782 0.144503,-0.114287 c 0.349556,-0.248892 0.781858,-0.373338 1.21416,-0.373338 0.494059,0 0.988119,0.162542 1.358663,0.487625 v 0 l 1.02929,0.853344 0.178387,0.137097 c 0.666489,0.483722 1.468477,0.756882 2.374252,0.756882 0.988119,0 1.852723,-0.325083 2.55264,-0.893979 v 0 l 1.02929,-0.893979 0.144503,-0.114288 c 0.349556,-0.248891 0.781858,-0.373337 1.21416,-0.373337 0.494059,0 0.988118,0.162541 1.358663,0.52826 v 0 l 1.02929,0.853344 0.179173,0.137097 c 0.671993,0.483722 1.505432,0.756882 2.373466,0.756882 0.946947,0 1.852722,-0.325083 2.55264,-0.893979 v 0 l 1.02929,-0.893979 0.144502,-0.114288 c 0.349557,-0.248891 0.781859,-0.373337 1.214161,-0.373337 0.494059,0 0.988118,0.162541 1.358662,0.487625 v 0 l 1.029291,0.893979 0.179172,0.137097 c 0.671993,0.483722 1.505432,0.756882 2.373467,0.756882 0.988118,0 1.852722,-0.325083 2.552639,-0.893979 v 0 l 1.02929,-0.893979 0.144503,-0.114288 c 0.349557,-0.248891 0.781859,-0.373337 1.21416,-0.373337 z M 39.5,2 C 51.269007,2 65,9.4325 65,28.3515 c 0,4.963055 -2.734,11.839988 -6.452914,18.923749 l -1.65733,-1.444812 -0.179172,-0.146433 c -0.671993,-0.515021 -1.505432,-0.788182 -2.373467,-0.788182 -0.946947,0 -1.852722,0.325084 -2.552639,0.934615 v 0 l -1.029291,0.893979 -0.130993,0.100875 c -0.322538,0.221669 -0.759342,0.346115 -1.227669,0.346115 -0.49406,0 -0.988119,-0.162542 -1.358663,-0.487625 v 0 l -1.02929,-0.853344 -0.179173,-0.146433 c -0.671993,-0.515021 -1.505432,-0.788182 -2.373467,-0.788182 -0.288201,0 -0.617574,0.04064 -0.905775,0.121907 v 0 l 0.24703,-2.966386 0.174954,-0.08857 c 1.522166,-0.849056 1.648359,-3.085352 1.965969,-5.397217 0.411716,-2.925751 1.441006,-10.930929 1.441006,-10.930929 0.08234,-0.731438 -0.411716,-1.340969 -1.152805,-1.42224 -0.741089,-0.08127 -1.358663,0.406354 -1.441006,1.137792 v 0 l -0.699917,5.810865 -0.02107,0.07405 c -0.06192,0.167224 -0.210523,0.29167 -0.390648,0.29167 v 0 H 43.6325 l -0.06828,-0.0072 c -0.180274,-0.0379 -0.338861,-0.218506 -0.302264,-0.399108 v 0 l 0.329373,-7.517553 9.55e-4,-0.127713 c -0.02802,-0.673325 -0.577358,-1.213256 -1.236104,-1.213256 -0.699917,-0.04064 -1.317491,0.52826 -1.358663,1.219063 v 0 l -0.329372,7.517553 -0.0073,0.06739 c -0.0384,0.177926 -0.221389,0.334448 -0.404374,0.298328 -0.205858,0 -0.370545,-0.162542 -0.370545,-0.365719 v 0 l -0.617574,-8.777252 -0.01436,-0.134674 c -0.104487,-0.660573 -0.6907,-1.122484 -1.38547,-1.084388 -0.741089,0.04064 -1.27632,0.650167 -1.235148,1.381604 v 0 l 0.535231,8.370897 -0.006,0.07949 c -0.03163,0.206466 -0.186148,0.362988 -0.40573,0.326867 v 0 h -0.123514 l -0.08318,-0.0095 C 36.393897,31.114633 36.29811,30.975309 36.26282,30.835987 v 0 l -1.193976,-6.867386 -0.02977,-0.127045 c -0.181232,-0.62233 -0.837404,-1.043763 -1.493577,-0.929476 -0.699917,0.121906 -1.193976,0.812708 -1.070461,1.50351 0,0 1.02929,5.607689 1.193976,6.786116 0.164687,1.219063 0.24703,1.869229 0.288201,2.966386 0.04117,0.609531 -0.494059,0.97525 -1.070461,0.406354 0,0 -1.111634,-1.340969 -1.770379,-1.991136 -0.658746,-0.650167 -1.358663,-0.893979 -2.017409,-0.446989 -0.699917,0.446989 -0.905775,1.381604 -0.411716,2.031771 0,0 2.840841,4.591802 4.570048,6.501667 0.535231,0.609532 1.235148,1.219063 1.976237,1.503511 v 0 l 0.24703,2.84448 -0.216151,-0.05333 c -0.216151,-0.04572 -0.432302,-0.06857 -0.648453,-0.06857 -0.946947,0 -1.852722,0.325084 -2.552639,0.934615 v 0 l -1.02929,0.893979 -0.130913,0.100875 c -0.321975,0.221669 -0.754277,0.346115 -1.186579,0.346115 -0.535231,0 -0.988118,-0.162542 -1.358663,-0.487625 v 0 l -1.111633,-0.853344 -0.179173,-0.146433 c -0.671993,-0.515021 -1.505432,-0.788182 -2.373466,-0.788182 -0.946947,0 -1.852722,0.325084 -2.55264,0.934615 v 0 l -1.697757,1.453057 C 16.722464,40.073612 14,33.134076 14,28.3515 14,9.4325 27.730992,2 39.5,2 Z m -3.783963,1.2702074 c -0.144687,-0.044474 -0.304808,-0.023551 -0.426989,0.055794 -0.101817,0.066121 -0.178341,0.1711904 -0.209209,0.3019838 v 0 l -0.423138,1.3545806 -0.05007,0.1340365 c -0.09802,0.2174731 -0.266528,0.40381 -0.470163,0.5360521 -0.244362,0.1586905 -0.53931,0.2394845 -0.823755,0.2027094 v 0 l -0.774667,-0.078352 -0.196384,-0.00993 c -0.458424,-0.00437 -0.916746,0.1236897 -1.344379,0.4013981 -0.488724,0.3173811 -0.815185,0.7508826 -0.984311,1.248332 v 0 l -0.230861,0.7590362 -0.05007,0.1340365 c -0.09802,0.2174731 -0.266528,0.40381 -0.470163,0.5360521 C 29.01751,9.00463 28.722562,9.085424 28.42547,9.0291747 v 0 l -0.774667,-0.078352 -0.197219,-0.00939 C 26.991541,8.9394227 26.519855,9.0761512 26.11004,9.3422885 25.641679,9.6464453 25.294856,10.093171 25.125729,10.59062 v 0 l -0.230861,0.759037 -0.05007,0.134036 c -0.09802,0.217473 -0.266528,0.40381 -0.470163,0.536052 -0.244362,0.158691 -0.53931,0.239485 -0.823755,0.202709 v 0 l -0.787314,-0.09783 -0.197219,-0.0094 c -0.462043,-0.002 -0.933729,0.134719 -1.343544,0.400856 -0.488724,0.317381 -0.815184,0.750883 -0.984311,1.248332 v 0 l -0.230861,0.759036 -0.05007,0.134037 c -0.09802,0.217473 -0.266528,0.40381 -0.470163,0.536052 -0.244362,0.15869 -0.539311,0.239484 -0.823756,0.202709 v 0 l -1.409576,-0.164402 -0.09779,-0.0092 c -0.09623,1.95e-4 -0.186818,0.02788 -0.263181,0.07747 -0.122181,0.07935 -0.226786,0.230337 -0.245007,0.380604 -0.03087,0.130794 0.0043,0.274087 0.100529,0.377707 0.07588,0.116845 0.200204,0.174543 0.352608,0.186319 v 0 l 1.356203,0.171376 0.17899,0.01498 c 0.47793,0.0202 0.9581,-0.116616 1.37442,-0.386977 0.46836,-0.304157 0.815184,-0.750883 0.971664,-1.267806 v 0 l 0.230861,-0.759037 0.04692,-0.120322 c 0.09403,-0.198856 0.265362,-0.38703 0.485967,-0.530292 0.244361,-0.158691 0.53931,-0.239485 0.823755,-0.202709 v 0 l 0.774667,0.07835 0.178989,0.01498 c 0.47793,0.0202 0.9581,-0.116616 1.374421,-0.386978 0.142544,-0.09257 0.292806,-0.217837 0.410057,-0.349355 v 0 l 0.801024,1.500957 -0.07995,0.138595 c -0.44888,0.888839 0.174265,1.986043 0.728347,3.178072 0.706924,1.53438 2.689226,5.701389 2.689226,5.701389 0.186913,0.376983 0.620975,0.510404 1.012811,0.311317 0.391837,-0.199088 0.545529,-0.63114 0.358616,-1.008123 v 0 l -1.462291,-3.009613 -0.0169,-0.0681 c -0.01079,-0.09222 0.02526,-0.18651 0.106711,-0.239407 v 0 l 0.02036,-0.01322 0.05532,-0.02503 c 0.09812,-0.02847 0.218694,0.0086 0.254419,0.100753 v 0 l 2.176722,3.708508 0.05716,0.08555 c 0.228351,0.293737 0.65375,0.366451 0.971081,0.160373 0.358826,-0.205337 0.487226,-0.676338 0.292596,-1.020623 v 0 l -2.176722,-3.708508 -0.02325,-0.05335 c -0.02501,-0.09527 0.01768,-0.215289 0.113067,-0.254161 0.101818,-0.06612 0.233858,-0.04112 0.297091,0.05625 v 0 l 3.037129,4.00805 0.07288,0.08497 c 0.25959,0.259726 0.677151,0.283733 0.998875,0.04963 0.353896,-0.25751 0.428922,-0.721537 0.180919,-1.058847 v 0 l -2.869936,-3.839757 -0.02669,-0.05176 c -0.0416,-0.106172 -0.01171,-0.223903 0.103862,-0.275221 v 0 l 0.06109,-0.03967 0.06187,-0.02777 c 0.08299,-0.022 0.165816,0.01281 0.222576,0.06455 v 0 l 2.727825,2.907626 0.08049,0.07246 c 0.284564,0.21813 0.721558,0.20206 1.001776,-0.05543 0.308239,-0.283234 0.337608,-0.772985 0.06152,-1.064372 0,0 -2.254326,-2.356825 -2.702532,-2.868678 -0.460854,-0.531327 -0.703927,-0.816465 -1.06575,-1.329043 -0.210064,-0.278887 -0.05916,-0.626069 0.402984,-0.53857 0,0 0.967154,0.285592 1.495317,0.385591 0.528162,0.1 0.950221,-0.008 1.136924,-0.433771 0.207066,-0.439027 0.01801,-0.953053 -0.428697,-1.105949 0,0 -2.834153,-1.288106 -4.283813,-1.647973 -0.454425,-0.120198 -0.990304,-0.187498 -1.445374,-0.08578 v 0 L 29.299378,9.9290617 29.463,9.8689491 c 0.106271,-0.044403 0.206921,-0.097461 0.301951,-0.1591735 0.468361,-0.3041568 0.815184,-0.7508825 0.971664,-1.2678061 v 0 l 0.230861,-0.7590362 0.04682,-0.1202608 C 31.107855,7.3641221 31.27636,7.1777852 31.479995,7.0455431 31.744721,6.8736283 32.019306,6.8060585 32.30375,6.8428337 v 0 l 0.815395,0.051903 0.178989,0.014981 c 0.47793,0.020201 0.9581,-0.1166159 1.37442,-0.3869775 0.468361,-0.3041569 0.815185,-0.7508826 0.971664,-1.2678062 v 0 l 0.423139,-1.3545807 0.01423,-0.079014 C 36.094417,3.715551 36.080902,3.6091481 36.020197,3.5156723 35.944317,3.3988275 35.848074,3.2952069 35.716033,3.2702072 Z"
     id="marker-inv_flooding_helpassigned-colored"
     fill="#f6c344"
     fill-rule="nonzero"
     style="fill:#00b000;fill-opacity:1;stroke:none;stroke-width:1" />
</svg>
